<svg xmlns="http://www.w3.org/2000/svg" viewBox="0 0 412 412" width="412" height="412">
	<style>
		tspan { white-space:pre }
		.shp0 { fill: #83898f } 
		.shp1 { fill: #073557 } 
		.shp2 { fill: #ffffff } 
	</style>
	<g id="Bottom Name">
		<path id="Name - rounded rect" class="shp0" d="M48.71 370L360.29 370C370.62 370 379 378.28 379 388.5C379 398.72 370.62 407 360.29 407L48.71 407C38.38 407 30 398.72 30 388.5C30 378.28 38.38 370 48.71 370Z" />
		<path id="OLD DOMINION UNIVERSITY" fill="#ffffff" d="M66.55 387.71Q66.55 389.9 65.8 391.85Q65.08 393.8 63.73 395.27Q62.38 396.74 60.46 397.61Q58.54 398.45 56.17 398.45Q53.89 398.45 52.06 397.67Q50.26 396.86 49 395.51Q47.74 394.13 47.05 392.3Q46.39 390.44 46.39 388.31Q46.39 386.06 47.14 384.11Q47.92 382.13 49.3 380.69Q50.68 379.25 52.6 378.41Q54.52 377.57 56.86 377.57Q59.11 377.57 60.91 378.35Q62.71 379.13 63.97 380.51Q65.23 381.89 65.89 383.75Q66.55 385.58 66.55 387.71ZM62.2 388.52Q62.2 386.84 61.78 385.4Q61.39 383.96 60.61 382.91Q59.86 381.83 58.72 381.23Q57.58 380.6 56.11 380.6Q54.97 380.6 53.98 381.05Q53.02 381.5 52.3 382.37Q51.58 383.21 51.16 384.5Q50.77 385.76 50.77 387.38Q50.77 389.18 51.19 390.65Q51.61 392.12 52.39 393.17Q53.17 394.22 54.28 394.79Q55.42 395.36 56.86 395.36Q58 395.36 58.96 394.91Q59.95 394.43 60.67 393.56Q61.39 392.66 61.78 391.4Q62.2 390.11 62.2 388.52ZM79.15 394.19L78.55 398L68.54 398Q68.59 398 68.74 397.93Q68.92 397.85 69.09 397.56Q69.27 397.27 69.4 396.75Q69.56 396.2 69.56 395.27L69.56 385.83Q69.56 385.02 69.4 384.54Q69.27 384.05 69.07 383.81Q68.87 383.55 68.68 383.46Q68.5 383.37 68.43 383.35L73.76 383.35Q73.69 383.35 73.49 383.44Q73.32 383.5 73.12 383.77Q72.92 384.01 72.77 384.51Q72.61 385 72.61 385.83L72.61 395.98L75.58 395.98Q76.35 395.98 76.88 395.93Q77.41 395.87 77.81 395.69Q78.2 395.49 78.51 395.14Q78.82 394.79 79.15 394.19ZM94.79 390.52Q94.79 391.97 94.33 393.31Q93.89 394.66 92.94 395.71Q92 396.75 90.5 397.38Q89.03 398 86.98 398L80.58 398Q80.64 398 80.84 397.93Q81.04 397.85 81.24 397.56Q81.46 397.27 81.61 396.75Q81.79 396.2 81.79 395.27L81.79 385.81Q81.79 385 81.59 384.54Q81.41 384.05 81.17 383.79Q80.95 383.52 80.73 383.46Q80.51 383.37 80.42 383.35L87.22 383.35Q88.96 383.35 90.35 383.88Q91.75 384.4 92.74 385.35Q93.73 386.3 94.26 387.62Q94.79 388.94 94.79 390.52ZM91.45 390.7Q91.45 389.51 91.14 388.54Q90.85 387.55 90.24 386.85Q89.62 386.14 88.67 385.75Q87.75 385.35 86.47 385.35L84.96 385.35L84.96 395.98L87.11 395.98Q88.23 395.98 89.05 395.54Q89.86 395.07 90.39 394.35Q90.92 393.6 91.18 392.65Q91.45 391.71 91.45 390.7ZM120.93 387.8Q120.93 389.78 120.3 391.61Q119.7 393.44 118.41 394.88Q117.12 396.29 115.08 397.16Q113.07 398 110.28 398L101.55 398Q101.64 398 101.91 397.91Q102.18 397.79 102.45 397.4Q102.75 397.01 102.96 396.29Q103.2 395.54 103.2 394.28L103.2 381.38Q103.2 380.27 102.93 379.64Q102.69 378.98 102.36 378.62Q102.06 378.26 101.76 378.17Q101.46 378.05 101.34 378.02L110.61 378.02Q112.98 378.02 114.87 378.74Q116.79 379.46 118.14 380.75Q119.49 382.04 120.21 383.84Q120.93 385.64 120.93 387.8ZM116.37 388.04Q116.37 386.42 115.95 385.1Q115.56 383.75 114.72 382.79Q113.88 381.83 112.59 381.29Q111.33 380.75 109.59 380.75L107.52 380.75L107.52 395.24L110.46 395.24Q111.99 395.24 113.1 394.64Q114.21 394.01 114.93 393.02Q115.65 392 116.01 390.71Q116.37 389.42 116.37 388.04ZM137.82 390.45Q137.82 392.06 137.27 393.49Q136.74 394.92 135.75 396Q134.76 397.08 133.36 397.71Q131.95 398.33 130.21 398.33Q128.54 398.33 127.2 397.76Q125.88 397.16 124.95 396.17Q124.03 395.16 123.52 393.82Q123.04 392.46 123.04 390.89Q123.04 389.24 123.59 387.81Q124.16 386.36 125.17 385.31Q126.18 384.25 127.59 383.63Q129 383.02 130.72 383.02Q132.37 383.02 133.69 383.59Q135.01 384.16 135.93 385.17Q136.85 386.19 137.34 387.55Q137.82 388.89 137.82 390.45ZM134.63 391.05Q134.63 389.82 134.32 388.76Q134.04 387.7 133.47 386.93Q132.92 386.14 132.08 385.7Q131.24 385.24 130.17 385.24Q129.33 385.24 128.6 385.57Q127.9 385.9 127.37 386.54Q126.84 387.15 126.54 388.1Q126.25 389.02 126.25 390.21Q126.25 391.53 126.56 392.61Q126.87 393.69 127.44 394.46Q128.01 395.23 128.82 395.65Q129.66 396.06 130.72 396.06Q131.55 396.06 132.26 395.73Q132.98 395.38 133.51 394.74Q134.04 394.08 134.32 393.16Q134.63 392.21 134.63 391.05ZM156.1 385.77L156.1 395.51Q156.1 396.33 156.26 396.81Q156.41 397.3 156.61 397.56Q156.83 397.82 157.03 397.91Q157.23 398 157.29 398L152.06 398Q152.12 398 152.28 397.93Q152.45 397.85 152.63 397.6Q152.83 397.34 152.96 396.86Q153.11 396.37 153.11 395.51L153.11 387.15L148.16 398.35L143.08 387.18L143.08 395.38Q143.08 396.24 143.26 396.77Q143.45 397.27 143.67 397.56Q143.92 397.82 144.14 397.91Q144.38 398 144.47 398L139.45 398Q139.52 398 139.74 397.91Q139.96 397.82 140.18 397.56Q140.42 397.3 140.59 396.79Q140.79 396.26 140.79 395.38L140.79 385.7Q140.79 384.93 140.59 384.47Q140.42 384.01 140.18 383.77Q139.93 383.52 139.69 383.46Q139.47 383.37 139.38 383.35L144.73 383.35L148.62 392.21L152.47 383.35L157.29 383.35Q157.23 383.35 157.03 383.44Q156.85 383.5 156.63 383.77Q156.43 384.01 156.26 384.49Q156.1 384.95 156.1 385.77ZM163.06 385.72L163.06 395.73Q163.06 396.48 163.21 396.92Q163.36 397.36 163.54 397.6Q163.74 397.85 163.91 397.93Q164.11 398 164.18 398L158.79 398Q158.85 398 159.03 397.93Q159.23 397.87 159.43 397.65Q159.62 397.41 159.78 396.97Q159.93 396.5 159.93 395.73L159.93 385.72Q159.93 384.95 159.78 384.49Q159.62 384.03 159.43 383.79Q159.23 383.52 159.03 383.46Q158.85 383.37 158.79 383.35L164.2 383.35Q164.16 383.35 163.96 383.44Q163.78 383.5 163.58 383.74Q163.39 383.99 163.21 384.47Q163.06 384.93 163.06 385.72ZM176.59 391.99L176.59 385.77Q176.59 384.98 176.41 384.51Q176.26 384.03 176.04 383.79Q175.84 383.52 175.64 383.46Q175.44 383.37 175.38 383.35L180.15 383.35Q180.08 383.35 179.89 383.44Q179.71 383.5 179.51 383.77Q179.31 384.01 179.16 384.49Q179.01 384.95 179.01 385.77L179.01 398L176.72 398Q176.52 397.52 176.21 396.9Q175.93 396.39 175.49 395.69Q175.05 394.96 174.36 394.13L169.46 388.14L169.46 395.6Q169.46 396.39 169.63 396.88Q169.81 397.34 170.03 397.58Q170.27 397.82 170.47 397.91Q170.69 398 170.78 398L165.89 398Q165.96 398 166.14 397.93Q166.31 397.85 166.51 397.6Q166.71 397.36 166.86 396.9Q167.02 396.42 167.02 395.6L167.02 385.94Q167.02 385.31 166.73 384.84Q166.44 384.36 166.07 384.05Q165.72 383.72 165.39 383.55Q165.08 383.37 165.01 383.35L169.68 383.35L176.59 391.99ZM185.87 385.72L185.87 395.73Q185.87 396.48 186.02 396.92Q186.18 397.36 186.35 397.6Q186.55 397.85 186.73 397.93Q186.93 398 186.99 398L181.6 398Q181.67 398 181.84 397.93Q182.04 397.87 182.24 397.65Q182.44 397.41 182.59 396.97Q182.75 396.5 182.75 395.73L182.75 385.72Q182.75 384.95 182.59 384.49Q182.44 384.03 182.24 383.79Q182.04 383.52 181.84 383.46Q181.67 383.37 181.6 383.35L187.01 383.35Q186.97 383.35 186.77 383.44Q186.6 383.5 186.4 383.74Q186.2 383.99 186.02 384.47Q185.87 384.93 185.87 385.72ZM203.43 390.45Q203.43 392.06 202.88 393.49Q202.35 394.92 201.36 396Q200.37 397.08 198.96 397.71Q197.55 398.33 195.81 398.33Q194.14 398.33 192.8 397.76Q191.48 397.16 190.56 396.17Q189.63 395.16 189.13 393.82Q188.64 392.46 188.64 390.89Q188.64 389.24 189.19 387.81Q189.76 386.36 190.78 385.31Q191.79 384.25 193.2 383.63Q194.6 383.02 196.32 383.02Q197.97 383.02 199.29 383.59Q200.61 384.16 201.53 385.17Q202.46 386.19 202.94 387.55Q203.43 388.89 203.43 390.45ZM200.24 391.05Q200.24 389.82 199.93 388.76Q199.64 387.7 199.07 386.93Q198.52 386.14 197.68 385.7Q196.85 385.24 195.77 385.24Q194.93 385.24 194.21 385.57Q193.5 385.9 192.98 386.54Q192.45 387.15 192.14 388.1Q191.85 389.02 191.85 390.21Q191.85 391.53 192.16 392.61Q192.47 393.69 193.04 394.46Q193.61 395.23 194.43 395.65Q195.26 396.06 196.32 396.06Q197.16 396.06 197.86 395.73Q198.59 395.38 199.11 394.74Q199.64 394.08 199.93 393.16Q200.24 392.21 200.24 391.05ZM215.94 391.99L215.94 385.77Q215.94 384.98 215.77 384.51Q215.61 384.03 215.39 383.79Q215.2 383.52 215 383.46Q214.8 383.37 214.73 383.35L219.51 383.35Q219.44 383.35 219.24 383.44Q219.07 383.5 218.87 383.77Q218.67 384.01 218.52 384.49Q218.36 384.95 218.36 385.77L218.36 398L216.08 398Q215.88 397.52 215.57 396.9Q215.28 396.39 214.84 395.69Q214.4 394.96 213.72 394.13L208.82 388.14L208.82 395.6Q208.82 396.39 208.99 396.88Q209.17 397.34 209.39 397.58Q209.63 397.82 209.83 397.91Q210.05 398 210.14 398L205.25 398Q205.32 398 205.49 397.93Q205.67 397.85 205.87 397.6Q206.07 397.36 206.22 396.9Q206.37 396.42 206.37 395.6L206.37 385.94Q206.37 385.31 206.09 384.84Q205.8 384.36 205.43 384.05Q205.08 383.72 204.75 383.55Q204.44 383.37 204.37 383.35L209.04 383.35L215.94 391.99ZM239.75 390.95L239.75 381.41Q239.75 380.3 239.51 379.64Q239.3 378.98 239 378.62Q238.7 378.26 238.4 378.17Q238.13 378.05 238.01 378.02L245.06 378.02Q244.97 378.02 244.7 378.14Q244.43 378.23 244.13 378.59Q243.86 378.92 243.62 379.61Q243.38 380.27 243.38 381.41L243.38 390.83Q243.38 392.87 242.84 394.31Q242.3 395.75 241.28 396.68Q240.26 397.61 238.82 398.03Q237.38 398.45 235.55 398.45Q231.23 398.45 229.28 396.62Q227.33 394.79 227.33 391.13L227.33 381.38Q227.33 380.27 227.12 379.61Q226.91 378.95 226.64 378.62Q226.37 378.26 226.1 378.17Q225.86 378.05 225.77 378.02L233.18 378.02Q233.09 378.02 232.85 378.14Q232.61 378.23 232.34 378.56Q232.07 378.89 231.86 379.55Q231.65 380.18 231.65 381.29L231.65 390.95Q231.65 393.47 232.67 394.49Q233.69 395.51 235.79 395.51Q237.98 395.51 238.85 394.37Q239.75 393.23 239.75 390.95ZM257.48 391.99L257.48 385.77Q257.48 384.98 257.3 384.51Q257.15 384.03 256.93 383.79Q256.73 383.52 256.53 383.46Q256.33 383.37 256.27 383.35L261.04 383.35Q260.97 383.35 260.78 383.44Q260.6 383.5 260.4 383.77Q260.2 384.01 260.05 384.49Q259.9 384.95 259.9 385.77L259.9 398L257.61 398Q257.41 397.52 257.1 396.9Q256.82 396.39 256.38 395.69Q255.94 394.96 255.25 394.13L250.35 388.14L250.35 395.6Q250.35 396.39 250.52 396.88Q250.7 397.34 250.92 397.58Q251.16 397.82 251.36 397.91Q251.58 398 251.67 398L246.78 398Q246.85 398 247.03 397.93Q247.2 397.85 247.4 397.6Q247.6 397.36 247.75 396.9Q247.91 396.42 247.91 395.6L247.91 385.94Q247.91 385.31 247.62 384.84Q247.33 384.36 246.96 384.05Q246.61 383.72 246.28 383.55Q245.97 383.37 245.9 383.35L250.57 383.35L257.48 391.99ZM266.76 385.72L266.76 395.73Q266.76 396.48 266.91 396.92Q267.07 397.36 267.24 397.6Q267.44 397.85 267.62 397.93Q267.82 398 267.88 398L262.49 398Q262.56 398 262.73 397.93Q262.93 397.87 263.13 397.65Q263.33 397.41 263.48 396.97Q263.64 396.5 263.64 395.73L263.64 385.72Q263.64 384.95 263.48 384.49Q263.33 384.03 263.13 383.79Q262.93 383.52 262.73 383.46Q262.56 383.37 262.49 383.35L267.9 383.35Q267.86 383.35 267.66 383.44Q267.49 383.5 267.29 383.74Q267.09 383.99 266.91 384.47Q266.76 384.93 266.76 385.72ZM280.49 384.4Q280.49 384.07 280.36 383.88Q280.25 383.68 280.09 383.57Q279.94 383.44 279.78 383.39Q279.63 383.35 279.56 383.35L284.65 383.35Q284.6 383.35 284.4 383.44Q284.21 383.52 283.92 383.81Q283.63 384.07 283.28 384.62Q282.93 385.17 282.56 386.12L277.89 398L275.65 398L270.87 386.03Q270.52 385.15 270.17 384.62Q269.82 384.1 269.53 383.83Q269.25 383.55 269.05 383.46Q268.85 383.37 268.78 383.35L274.7 383.35Q274.64 383.35 274.48 383.39Q274.35 383.44 274.2 383.55Q274.04 383.63 273.91 383.83Q273.8 384.03 273.8 384.34Q273.8 384.58 273.89 384.87Q274 385.15 274.17 385.55L277.25 393.31L280.22 385.46Q280.33 385.11 280.4 384.87Q280.49 384.6 280.49 384.4ZM296.44 393.91L295.73 398L285.68 398Q285.75 398 285.92 397.91Q286.12 397.82 286.32 397.56Q286.54 397.3 286.69 396.79Q286.87 396.26 286.87 395.38L286.87 385.81Q286.87 385.02 286.67 384.54Q286.49 384.05 286.25 383.81Q286.03 383.55 285.81 383.46Q285.59 383.37 285.5 383.35L295.47 383.35L295.47 387.26Q295.36 386.89 295.18 386.56Q295.01 386.21 294.7 385.94Q294.41 385.68 293.93 385.53Q293.47 385.35 292.79 385.35L290.01 385.35L290.01 389.6L292.43 389.6Q292.98 389.6 293.31 389.51Q293.67 389.4 293.84 389.27Q294.04 389.13 294.11 389.02Q294.17 388.89 294.19 388.85L294.19 392.32Q294.19 392.3 294.13 392.19Q294.08 392.06 293.91 391.93Q293.73 391.8 293.38 391.71Q293.05 391.6 292.48 391.6L290.01 391.6L290.01 395.98L293.01 395.98Q293.71 395.98 294.22 395.87Q294.74 395.76 295.12 395.51Q295.51 395.25 295.82 394.88Q296.13 394.48 296.44 393.91ZM306.78 392.96L308.74 396.35Q309.04 396.9 309.35 397.23Q309.66 397.54 309.92 397.71Q310.19 397.89 310.36 397.96Q310.56 398 310.65 398L306.18 398L303.74 393.49Q303.35 392.74 303.04 392.5Q302.73 392.24 302.29 392.24L301.98 392.24L301.98 395.56Q301.98 396.37 302.14 396.86Q302.29 397.32 302.47 397.58Q302.66 397.82 302.84 397.91Q303.04 398 303.1 398L297.8 398Q297.87 398 298.04 397.93Q298.24 397.85 298.44 397.6Q298.64 397.36 298.79 396.88Q298.97 396.39 298.97 395.56L298.97 385.9Q298.97 385.06 298.77 384.58Q298.59 384.07 298.35 383.81Q298.13 383.55 297.91 383.46Q297.69 383.37 297.63 383.35L304.07 383.35Q305.37 383.35 306.34 383.72Q307.31 384.07 307.94 384.69Q308.6 385.28 308.93 386.05Q309.26 386.82 309.26 387.64Q309.26 388.39 309.02 389.07Q308.78 389.75 308.32 390.3Q307.88 390.85 307.2 391.22Q306.54 391.58 305.68 391.69Q306.25 392.04 306.78 392.96ZM306.12 387.73Q306.12 387.26 305.94 386.85Q305.79 386.41 305.46 386.08Q305.13 385.75 304.62 385.55Q304.14 385.35 303.48 385.35L301.96 385.35L301.96 390.26L303.5 390.26Q304.2 390.26 304.69 390.06Q305.19 389.84 305.5 389.49Q305.83 389.13 305.96 388.67Q306.12 388.21 306.12 387.73ZM321.89 393.93Q321.89 395.01 321.45 395.82Q321.03 396.64 320.29 397.21Q319.56 397.76 318.53 398.04Q317.51 398.33 316.33 398.33Q315.09 398.33 313.93 398.04Q312.78 397.74 311.99 397.23L311.99 393.07Q312.39 393.95 312.89 394.55Q313.4 395.12 313.95 395.49Q314.52 395.84 315.14 396Q315.75 396.15 316.41 396.15Q317.43 396.15 318.15 395.71Q318.88 395.27 318.88 394.48Q318.88 393.89 318.53 393.47Q318.2 393.03 317.65 392.68Q317.1 392.32 316.39 392.02Q315.71 391.69 315.03 391.31Q314.46 391.03 313.91 390.67Q313.38 390.3 312.96 389.84Q312.56 389.38 312.3 388.78Q312.06 388.19 312.06 387.42Q312.06 386.34 312.48 385.53Q312.89 384.69 313.6 384.14Q314.3 383.59 315.25 383.33Q316.22 383.04 317.32 383.04Q318.37 383.04 319.34 383.33Q320.33 383.61 320.92 384.03L320.92 387.53Q320.7 387.13 320.33 386.71Q319.96 386.3 319.45 385.97Q318.97 385.61 318.37 385.39Q317.78 385.17 317.12 385.17Q316 385.17 315.47 385.64Q314.94 386.1 314.94 386.78Q314.94 387.22 315.16 387.57Q315.4 387.92 315.78 388.21Q316.17 388.5 316.68 388.76Q317.21 389 317.78 389.27Q318.5 389.6 319.23 389.99Q319.98 390.39 320.57 390.94Q321.17 391.47 321.52 392.19Q321.89 392.92 321.89 393.93ZM327.88 385.72L327.88 395.73Q327.88 396.48 328.03 396.92Q328.18 397.36 328.36 397.6Q328.56 397.85 328.73 397.93Q328.93 398 329 398L323.61 398Q323.67 398 323.85 397.93Q324.05 397.87 324.25 397.65Q324.44 397.41 324.6 396.97Q324.75 396.5 324.75 395.73L324.75 385.72Q324.75 384.95 324.6 384.49Q324.44 384.03 324.25 383.79Q324.05 383.52 323.85 383.46Q323.67 383.37 323.61 383.35L329.02 383.35Q328.98 383.35 328.78 383.44Q328.6 383.5 328.4 383.74Q328.21 383.99 328.03 384.47Q327.88 384.93 327.88 385.72ZM343.17 383.35L343.5 387.33Q343.34 386.93 343.14 386.58Q342.97 386.23 342.66 385.97Q342.37 385.68 341.91 385.53Q341.45 385.35 340.77 385.35L338.5 385.35L338.5 395.54Q338.5 396.35 338.63 396.83Q338.79 397.32 338.96 397.58Q339.16 397.82 339.34 397.91Q339.54 398 339.62 398L334.17 398Q334.23 398 334.41 397.93Q334.61 397.85 334.81 397.6Q335 397.34 335.14 396.86Q335.29 396.37 335.29 395.54L335.29 385.35L332.63 385.35Q332.06 385.35 331.68 385.53Q331.33 385.68 331.07 385.97Q330.82 386.23 330.65 386.6Q330.47 386.96 330.3 387.33Q330.41 386.34 330.47 385.35Q330.56 384.36 330.65 383.35L343.17 383.35ZM354.61 384.18Q354.61 383.94 354.52 383.79Q354.45 383.61 354.34 383.52Q354.25 383.44 354.14 383.39Q354.03 383.35 353.99 383.35L358.76 383.35Q358.74 383.35 358.57 383.44Q358.41 383.5 358.13 383.77Q357.84 384.03 357.42 384.54Q357.03 385.04 356.52 385.92L353 391.84L353 395.54Q353 396.35 353.13 396.83Q353.29 397.32 353.48 397.58Q353.68 397.82 353.86 397.91Q354.03 398 354.1 398L348.67 398Q348.73 398 348.91 397.93Q349.11 397.85 349.3 397.6Q349.5 397.36 349.66 396.88Q349.81 396.37 349.81 395.54L349.81 391.95L346.36 385.88Q345.87 385.04 345.48 384.56Q345.08 384.05 344.77 383.79Q344.49 383.52 344.29 383.46Q344.11 383.37 344.05 383.35L349.96 383.35Q349.92 383.35 349.79 383.39Q349.68 383.41 349.57 383.52Q349.46 383.61 349.37 383.79Q349.28 383.94 349.28 384.21Q349.28 384.47 349.41 384.84Q349.55 385.22 349.85 385.77L351.94 389.4L353.81 386.16Q354.23 385.44 354.41 384.98Q354.61 384.49 354.61 384.18Z" />
	</g>
	<g id="W">
		<path id="W circle" class="shp1" d="M84.5 130C114.6 130 139 154.4 139 184.5C139 214.6 114.6 239 84.5 239C54.4 239 30 214.6 30 184.5C30 154.4 54.4 130 84.5 130Z" />
		<path id="W" fill="#ffffff" d="M108.7 168.95Q108.7 167.57 108.31 166.8Q107.93 165.95 107.39 165.49Q106.93 165.03 106.39 164.87Q105.92 164.64 105.69 164.57L123.4 164.57Q123.17 164.57 122.4 164.87Q121.71 165.18 120.63 166.18Q119.63 167.18 118.4 169.11Q117.24 170.96 116.17 174.19L102.46 215.85L94.07 215.85L84.21 186.05L73.89 215.85L65.65 215.85L51.64 173.81Q50.56 170.73 49.41 168.95Q48.33 167.11 47.25 166.18Q46.25 165.26 45.48 164.95Q44.71 164.64 44.48 164.57L65.19 164.57Q65.04 164.57 64.58 164.72Q64.19 164.87 63.73 165.34Q63.34 165.8 62.96 166.64Q62.65 167.41 62.65 168.72Q62.65 170.42 63.57 173.42L71.97 198.68L80.67 174.65L80.05 172.8Q79.13 170.19 78.2 168.57Q77.36 166.95 76.66 166.11Q75.97 165.26 75.43 164.95Q74.97 164.64 74.82 164.57L93.22 164.57Q93.07 164.57 92.53 164.8Q92.06 164.95 91.53 165.41Q91.06 165.87 90.6 166.72Q90.22 167.57 90.22 169.03Q90.22 170.65 91.14 173.42L99.53 198.6L107.93 173.27Q108.39 171.96 108.54 170.88Q108.7 169.8 108.7 168.95Z" />
	</g>
	<g id="S">
		<path id="S circle" class="shp1" d="M84.5 250C114.6 250 139 274.4 139 304.5C139 334.6 114.6 359 84.5 359C54.4 359 30 334.6 30 304.5C30 274.4 54.4 250 84.5 250Z" />
		<path id="S" fill="#ffffff" d="M101.86 315.87Q101.86 319.64 100.32 322.49Q98.86 325.34 96.24 327.34Q93.7 329.27 90.08 330.27Q86.54 331.27 82.38 331.27Q78.07 331.27 73.99 330.27Q69.98 329.19 67.21 327.42L67.21 312.87Q68.6 315.95 70.37 318.02Q72.14 320.03 74.06 321.34Q76.06 322.57 78.22 323.11Q80.38 323.65 82.69 323.65Q86.23 323.65 88.77 322.11Q91.31 320.57 91.31 317.79Q91.31 315.71 90.08 314.25Q88.92 312.71 87 311.48Q85.07 310.25 82.61 309.17Q80.22 308.01 77.84 306.71Q75.83 305.7 73.91 304.47Q72.06 303.16 70.6 301.55Q69.21 299.93 68.29 297.85Q67.44 295.77 67.44 293.08Q67.44 289.3 68.9 286.45Q70.37 283.53 72.83 281.6Q75.29 279.68 78.61 278.75Q81.99 277.75 85.84 277.75Q89.54 277.75 92.93 278.75Q96.39 279.76 98.47 281.22L98.47 293.46Q97.7 292.08 96.39 290.61Q95.08 289.15 93.31 287.99Q91.62 286.76 89.54 285.99Q87.46 285.22 85.15 285.22Q81.22 285.22 79.38 286.84Q77.53 288.46 77.53 290.84Q77.53 292.38 78.3 293.62Q79.14 294.85 80.45 295.85Q81.84 296.85 83.61 297.77Q85.46 298.62 87.46 299.54Q90 300.7 92.54 302.09Q95.16 303.47 97.24 305.4Q99.32 307.24 100.55 309.79Q101.86 312.33 101.86 315.87Z" />
	</g>
	<g id="D">
		<path id="D circle" class="shp1" d="M204.5 250C234.6 250 259 274.4 259 304.5C259 334.6 234.6 359 204.5 359C174.4 359 150 334.6 150 304.5C150 274.4 174.4 250 204.5 250Z" />
		<path id="D " fill="#ffffff" d="M230.12 303.35Q230.12 308.43 228.5 313.13Q226.96 317.83 223.65 321.52Q220.34 325.14 215.1 327.38Q209.95 329.53 202.78 329.53L180.38 329.53Q180.61 329.53 181.3 329.3Q182 328.99 182.69 327.99Q183.46 326.99 184 325.14Q184.61 323.22 184.61 319.98L184.61 286.87Q184.61 284.02 183.92 282.41Q183.3 280.71 182.46 279.79Q181.69 278.87 180.92 278.63Q180.15 278.33 179.84 278.25L203.63 278.25Q209.72 278.25 214.57 280.1Q219.49 281.95 222.96 285.26Q226.42 288.57 228.27 293.19Q230.12 297.81 230.12 303.35ZM218.42 303.97Q218.42 299.81 217.34 296.42Q216.34 292.96 214.18 290.49Q212.03 288.03 208.71 286.64Q205.48 285.26 201.01 285.26L195.7 285.26L195.7 322.45L203.25 322.45Q207.17 322.45 210.02 320.91Q212.87 319.29 214.72 316.75Q216.57 314.13 217.49 310.82Q218.42 307.51 218.42 303.97Z" />
	</g>
	<g id="L">
		<path id="L circle" class="shp1" d="M324.5 250C354.6 250 379 274.4 379 304.5C379 334.6 354.6 359 324.5 359C294.4 359 270 334.6 270 304.5C270 274.4 294.4 250 324.5 250Z" />
		<path id="L" fill="#ffffff" d="M343.1 317.47L341.02 330.79L305.98 330.79Q306.14 330.79 306.68 330.56Q307.29 330.25 307.91 329.25Q308.52 328.25 308.99 326.4Q309.52 324.48 309.52 321.24L309.52 288.21Q309.52 285.36 308.99 283.67Q308.52 281.97 307.83 281.13Q307.14 280.2 306.44 279.9Q305.83 279.59 305.6 279.51L324.23 279.51Q324 279.51 323.31 279.82Q322.69 280.05 322 280.97Q321.31 281.82 320.77 283.59Q320.23 285.29 320.23 288.21L320.23 323.71L330.62 323.71Q333.32 323.71 335.17 323.55Q337.01 323.32 338.4 322.71Q339.79 322.01 340.86 320.78Q341.94 319.55 343.1 317.47Z" />
	</g>
	<g id="memento">
		<path id="bg" class="shp0" d="M204.5 10C234.6 10 259 34.4 259 64.5C259 94.6 234.6 119 204.5 119C174.4 119 150 94.6 150 64.5C150 34.4 174.4 10 204.5 10Z" />
		<path id="circle" class="shp2" d="M205.5 53C210.75 53 215 57.25 215 62.5C215 67.75 210.75 72 205.5 72C200.25 72 196 67.75 196 62.5C196 57.25 200.25 53 205.5 53Z" />
		<path id="bottom hand" class="shp2" d="M200 68L211 68L211 107L200 107L200 68Z" />
		<path id="left hand" class="shp2" d="M205.25 56.99L208.49 67.5L171.23 79.01L167.98 68.5L205.25 56.99Z" />
	</g>
</svg>
